# xmcd CD database file
#
# Track frame offsets:
#	183
#	16450
#	34108
#	47130
#	58463
#	76293
#	91043
#	106350
#	116945
#	130885
#	147438
#	168893
#	188795
#	208435
#	224525
#
# Disc length: 3135 seconds
#
# Revision: 0
# Processed by: cddbd v1.4PL0 Copyright (c) Steve Scherf et al.
# Submitted via: CDex 1.40PlusFr
#
DISCID=e30c3d0f
DTITLE=Benoit Blue Boy - Le tortillage
DYEAR=1900
DGENRE=Blues
TTITLE0=combien
TTITLE1=pas danser
TTITLE2=la même erreur
TTITLE3=les vagues
TTITLE4=oh! oh! lucie
TTITLE5=le p'tit nuage
TTITLE6=du sucre dans mon café
TTITLE7=tous les jours
TTITLE8=le tortillage
TTITLE9=déjà pret
TTITLE10=comment j'vais faire
TTITLE11=elle rentre dedans
TTITLE12=pourquoi m'lever
TTITLE13=chanquis chanque
TTITLE14=le qu'est c'quy dit
EXTD=ID3G: 0
EXTT0=
EXTT1=
EXTT2=
EXTT3=
EXTT4=
EXTT5=
EXTT6=
EXTT7=
EXTT8=
EXTT9=
EXTT10=
EXTT11=
EXTT12=
EXTT13=
EXTT14=
PLAYORDER=
